<?xml version="1.0" encoding="utf-8"?>
<!-- Generator: Adobe Illustrator 17.1.0, SVG Export Plug-In . SVG Version: 6.00 Build 0)  -->
<!DOCTYPE svg PUBLIC "-//W3C//DTD SVG 1.1//EN" "http://www.w3.org/Graphics/SVG/1.1/DTD/svg11.dtd">
<svg version="1.1" id="Layer_1" xmlns="http://www.w3.org/2000/svg" xmlns:xlink="http://www.w3.org/1999/xlink" x="0px" y="0px"
	 viewBox="0 0 32 32" enable-background="new 0 0 32 32" xml:space="preserve">
<g>
	<path fill="#8E1E12" d="M12.7,2.6H20c0.5,0,0.8,0.4,0.8,0.8v3.9c0,0.5-0.4,0.8-0.8,0.8h-0.2V4.4c0-0.3-0.2-0.5-0.5-0.5h-5.9
		c-0.3,0-0.5,0.2-0.5,0.5v3.8h-0.2c-0.5,0-0.8-0.4-0.8-0.8V3.4C11.8,2.9,12.2,2.6,12.7,2.6z"/>
	<path fill-rule="evenodd" clip-rule="evenodd" fill="#718550" d="M2.2,7.1h28.2c0.6,0,1,0.5,1,1.2v20.2c0,0.6-0.5,1.2-1,1.2H2.2
		c-0.6,0-1-0.5-1-1.2V8.3C1.2,7.7,1.7,7.1,2.2,7.1z"/>
	<path fill-rule="evenodd" clip-rule="evenodd" fill="#BCAB20" d="M29.2,7.2v10.6c0,1.2-1,2.2-2.2,2.2H5.7c-1.2,0-2.2-1-2.2-2.2V7.2
		C3.8,7.2,4,7.1,4.3,7.1h24.2C28.7,7.1,29,7.1,29.2,7.2z"/>
	<path fill="#8E1E12" d="M19,21.6c0,0.6-1.2,1.4-1.9,1.4h-1.4c-0.6,0-0.7-0.8-0.7-1.4v-1.5c0-0.6,0.1-1.1,0.7-1.1h1.4
		c0.6,0,1.9,0.5,1.9,1.1V21.6z"/>
</g>
<path opacity="0.1" fill="#FFF9EC" d="M30.4,7.1h-9.9V3.4c0-0.5-0.4-0.8-0.9-0.8h-3.1v1.3h2.3c0.3,0,0.5,0.2,0.5,0.5v2.8h-2.9v22.6
	h13.9c0.6,0,1.1-0.5,1.1-1.2V8.3C31.5,7.7,31,7.1,30.4,7.1z"/>
</svg>
