<?xml version="1.0" encoding="utf-8"?>
<!-- Generator: Adobe Illustrator 17.1.0, SVG Export Plug-In . SVG Version: 6.00 Build 0)  -->
<!DOCTYPE svg PUBLIC "-//W3C//DTD SVG 1.1//EN" "http://www.w3.org/Graphics/SVG/1.1/DTD/svg11.dtd">
<svg version="1.1" id="Layer_1" xmlns="http://www.w3.org/2000/svg" xmlns:xlink="http://www.w3.org/1999/xlink" x="0px" y="0px"
	 viewBox="0 0 32 32" enable-background="new 0 0 32 32" xml:space="preserve">
<g>
	<g>
		<path fill="#3A3937" d="M7.9,7.9C8,8,8,8.2,7.9,8.3l0,0c-0.1,0.1-0.3,0.1-0.4,0L6.9,7.7c-0.1-0.1-0.1-0.3,0-0.4l0,0
			c0.1-0.1,0.3-0.1,0.4,0L7.9,7.9z"/>
		
			<rect x="19" y="13.3" transform="matrix(0.7071 -0.7071 0.7071 0.7071 -8.243 19.2989)" fill="#3A3937" width="0.4" height="12.6"/>
		<path fill="#F2BD66" d="M1.5,28.4c0,0,1-1.9,3.2-2.7c0,0,2.1-3.5,5.9-5.4c0,0,2.5-4.8,9.2-9.2c0,0,0.9-2.8,5.3-6
			c0,0,1.5-3.1,2.9-2.9c0,0-11.6-3.3-20.6,5.8C-1.6,17,1.5,28.4,1.5,28.4z"/>
		<path fill="#EFCC9A" d="M7.4,7.9c-9,9-5.9,20.5-5.9,20.5s1-1.9,3.2-2.7c0,0,2.1-3.5,5.9-5.4c0,0,2.5-4.8,9.2-9.2
			C19.8,11,12.9,5.2,7.4,7.9z"/>
		<path fill="#F2BD66" d="M7.4,7.9c-9,9-5.9,20.5-5.9,20.5s1-1.9,3.2-2.7c0,0,2.1-3.5,5.9-5.4C10.6,20.3,5,14.8,7.4,7.9z"/>
		<path fill="#EFA91B" d="M7.4,7.9c-9,9-5.9,20.5-5.9,20.5s1-1.9,3.2-2.7C4.7,25.7,0.1,17.1,7.4,7.9z"/>
		<path fill="#EFA91B" d="M28.1,2.2c0,0-11.6-3.3-20.6,5.8C16,0.6,25.2,5.1,25.2,5.1S26.6,1.9,28.1,2.2z"/>
		<path fill="#CE8709" d="M22.8,23.8l0.5-0.5l2.6,2.6c0,0,1.1,1,2.2,0c1.1-1.1,0.3-2.3-0.1-2.7c0,0-0.2-0.3,0.2-0.7
			c0,0,2.4,1.9,0.4,3.9c-2,2-4-0.7-4-0.7L22.8,23.8z"/>
	</g>
</g>
</svg>
