<?xml version="1.0" encoding="utf-8"?>
<!-- Generator: Adobe Illustrator 17.1.0, SVG Export Plug-In . SVG Version: 6.00 Build 0)  -->
<!DOCTYPE svg PUBLIC "-//W3C//DTD SVG 1.1//EN" "http://www.w3.org/Graphics/SVG/1.1/DTD/svg11.dtd">
<svg version="1.1" id="Layer_1" xmlns="http://www.w3.org/2000/svg" xmlns:xlink="http://www.w3.org/1999/xlink" x="0px" y="0px"
	 viewBox="0 0 32 32" enable-background="new 0 0 32 32" xml:space="preserve">
<g>
	<g>
		<g>
			<path fill="#FFBF00" d="M26.5,9.1h-2.8c-0.3,0.5-0.7,1.1-1,1.6h3.1c1.8,0,3.2,1.5,3.2,3.3v2.3c0,1.8-1.4,3.3-3.2,3.3h-4
				c-1.4,0-2.6-0.9-3-2.2c-0.4,0.7-0.8,1.3-1.2,2c0.8,1.1,2.1,1.8,3.5,1.8h5.4c2.4,0,4.3-2,4.3-4.4v-3.2
				C30.9,11.1,28.9,9.1,26.5,9.1z"/>
			<g>
				<path fill="#FFBF00" d="M23.5,21.1C23,23.2,20.7,25,18.6,25h-6.4c-2.2,0-4.4-1.8-4.9-3.9L4.1,9.7C3.6,7.7,4.8,6,7,6h16.8
					c2.2,0,3.4,1.7,2.9,3.7L23.5,21.1z"/>
			</g>
		</g>
		<g>
			<path fill="#FBE082" d="M28.8,25.5c-0.9,1.1-3.4,1.5-5.6,1.5h-15c-2.2,0-4.7-0.4-5.6-1.5S2.8,24,5,24h21.6
				C28.7,24,29.7,24.4,28.8,25.5z"/>
		</g>
	</g>
</g>
<g opacity="0.1">
	<path fill="#FFF9EC" d="M26.5,21.1c2.4,0,4.3-2,4.3-4.4v-3.2c0-2.3-1.8-4.2-4.1-4.4l0.9-3.4H16.9v21.6h10.2l3.3-3.9h-7.7l0.7-2.4
		H26.5z M26.3,10.7c1.6,0.2,2.8,1.6,2.8,3.2v2.3c0,1.8-1.4,3.3-3.2,3.3h-2L26.3,10.7z"/>
</g>
</svg>
