<?xml version="1.0" encoding="utf-8"?>
<!-- Generator: Adobe Illustrator 17.1.0, SVG Export Plug-In . SVG Version: 6.00 Build 0)  -->
<!DOCTYPE svg PUBLIC "-//W3C//DTD SVG 1.1//EN" "http://www.w3.org/Graphics/SVG/1.1/DTD/svg11.dtd">
<svg version="1.1" id="Layer_1" xmlns="http://www.w3.org/2000/svg" xmlns:xlink="http://www.w3.org/1999/xlink" x="0px" y="0px"
	 viewBox="0 0 32 32" enable-background="new 0 0 32 32" xml:space="preserve">
<g>
	<circle fill="#8E1E12" cx="16.1" cy="17" r="7.5"/>
	<circle fill="#EECFAB" cx="16.1" cy="17" r="6.3"/>
	<rect x="0.4" y="13.4" fill="#8E1E12" width="9.2" height="7.2"/>
	<rect x="22.4" y="13.4" fill="#8E1E12" width="9.2" height="7.2"/>
	<g>
		<path fill-rule="evenodd" clip-rule="evenodd" fill="#FEFEFD" d="M16.1,23.2c3.4,0,6.2-2.8,6.2-6.2c0-3.4-2.8-6.2-6.2-6.2
			c-3.4,0-6.2,2.8-6.2,6.2C9.9,20.4,12.7,23.2,16.1,23.2z"/>
		<g>
			<path fill="#EECFAB" d="M16.1,10.5c1.8,0,3.4,0.7,4.6,1.9c1.2,1.2,1.9,2.8,1.9,4.6c0,1.8-0.7,3.4-1.9,4.6
				c-1.2,1.2-2.8,1.9-4.6,1.9l0-0.6c1.6,0,3.1-0.7,4.2-1.7c1.1-1.1,1.7-2.6,1.7-4.2c0-1.6-0.7-3.1-1.7-4.2c-1.1-1.1-2.6-1.7-4.2-1.7
				L16.1,10.5z M16.1,23.5c-1.8,0-3.4-0.7-4.6-1.9c-1.2-1.2-1.9-2.8-1.9-4.6c0-1.8,0.7-3.4,1.9-4.6c1.2-1.2,2.8-1.9,4.6-1.9l0,0.6
				c-1.6,0-3.1,0.7-4.2,1.7c-1.1,1.1-1.7,2.6-1.7,4.2c0,1.6,0.7,3.1,1.7,4.2c1.1,1.1,2.6,1.7,4.2,1.7L16.1,23.5z"/>
			<path fill="#8E5317" d="M16.3,16.7c0.1,0.1,0.2,0.2,0.1,0.4c-0.1,0.1-0.2,0.2-0.4,0.1l-4.1-1.9c-0.1-0.1-0.2-0.2-0.1-0.4
				c0.1-0.1,0.2-0.2,0.4-0.1L16.3,16.7z"/>
			<path fill="#8E5317" d="M16.3,17.2c-0.1,0.1-0.3,0.1-0.4,0c-0.1-0.1-0.1-0.3,0-0.4l2.1-1.7c0.1-0.1,0.3-0.1,0.4,0
				c0.1,0.1,0.1,0.3,0,0.4L16.3,17.2z"/>
			<path fill="#EECFAB" d="M15.8,10.8c0-0.2,0.1-0.3,0.3-0.3c0.2,0,0.3,0.1,0.3,0.3l0,0.8c0,0.2-0.1,0.3-0.3,0.3
				c-0.2,0-0.3-0.1-0.3-0.3L15.8,10.8z"/>
			<path fill="#EECFAB" d="M22.3,16.7c0.2,0,0.3,0.1,0.3,0.3c0,0.2-0.1,0.3-0.3,0.3l-0.8,0c-0.2,0-0.3-0.1-0.3-0.3
				c0-0.2,0.1-0.3,0.3-0.3L22.3,16.7z"/>
			<path fill="#EECFAB" d="M16.4,23.2c0,0.2-0.1,0.3-0.3,0.3c-0.2,0-0.3-0.1-0.3-0.3l0-0.8c0-0.2,0.1-0.3,0.3-0.3
				c0.2,0,0.3,0.1,0.3,0.3L16.4,23.2z"/>
			<path fill="#EECFAB" d="M9.9,17.3c-0.2,0-0.3-0.1-0.3-0.3c0-0.2,0.1-0.3,0.3-0.3l0.8,0c0.2,0,0.3,0.1,0.3,0.3
				c0,0.2-0.1,0.3-0.3,0.3L9.9,17.3z"/>
			<path fill="#EECFAB" d="M19,11.5c0.1-0.1,0.2-0.2,0.4-0.1c0.1,0.1,0.2,0.2,0.1,0.4l-0.4,0.7c-0.1,0.1-0.2,0.2-0.4,0.1
				c-0.1-0.1-0.2-0.3-0.1-0.4L19,11.5z"/>
			<path fill="#EECFAB" d="M21.7,19.8c0.1,0.1,0.2,0.2,0.1,0.4c-0.1,0.1-0.2,0.2-0.4,0.1l-0.7-0.4c-0.1-0.1-0.2-0.2-0.1-0.4
				c0.1-0.1,0.2-0.2,0.4-0.1L21.7,19.8z"/>
			<path fill="#EECFAB" d="M13.3,22.5c-0.1,0.1-0.2,0.2-0.4,0.1c-0.1-0.1-0.2-0.2-0.1-0.4l0.4-0.7c0.1-0.1,0.2-0.2,0.4-0.1
				c0.1,0.1,0.2,0.2,0.1,0.4L13.3,22.5z"/>
			<path fill="#EECFAB" d="M10.6,14.2c-0.1-0.1-0.2-0.2-0.1-0.4c0.1-0.1,0.2-0.2,0.4-0.1l0.7,0.4c0.1,0.1,0.2,0.2,0.1,0.4
				c-0.1,0.1-0.2,0.2-0.4,0.1L10.6,14.2z"/>
			<path fill="#EECFAB" d="M21.4,13.6c0.1-0.1,0.3,0,0.4,0.1c0.1,0.1,0,0.3-0.1,0.4l-0.7,0.4c-0.1,0.1-0.3,0-0.4-0.1
				c-0.1-0.1,0-0.3,0.1-0.4L21.4,13.6z"/>
			<path fill="#EECFAB" d="M19.5,22.2c0.1,0.1,0,0.3-0.1,0.4c-0.1,0.1-0.3,0-0.4-0.1l-0.4-0.7c-0.1-0.1,0-0.3,0.1-0.4
				c0.1-0.1,0.3,0,0.4,0.1L19.5,22.2z"/>
			<path fill="#EECFAB" d="M10.9,20.4c-0.1,0.1-0.3,0-0.4-0.1c-0.1-0.1,0-0.3,0.1-0.4l0.7-0.4c0.1-0.1,0.3,0,0.4,0.1
				c0.1,0.1,0,0.3-0.1,0.4L10.9,20.4z"/>
			<path fill="#EECFAB" d="M12.8,11.8c-0.1-0.1,0-0.3,0.1-0.4c0.1-0.1,0.3,0,0.4,0.1l0.4,0.7c0.1,0.1,0,0.3-0.1,0.4
				c-0.1,0.1-0.3,0-0.4-0.1L12.8,11.8z"/>
		</g>
	</g>
</g>
<path opacity="0.1" fill="#FFF9EC" d="M22.7,13.4c-1.3-2.3-3.7-3.9-6.5-3.9v15c2.8-0.1,5.2-1.6,6.4-3.9h8.9v-7.2H22.7z"/>
</svg>
