<?xml version="1.0" encoding="utf-8"?>
<!-- Generator: Adobe Illustrator 17.1.0, SVG Export Plug-In . SVG Version: 6.00 Build 0)  -->
<!DOCTYPE svg PUBLIC "-//W3C//DTD SVG 1.1//EN" "http://www.w3.org/Graphics/SVG/1.1/DTD/svg11.dtd">
<svg version="1.1" id="Layer_1" xmlns="http://www.w3.org/2000/svg" xmlns:xlink="http://www.w3.org/1999/xlink" x="0px" y="0px"
	 viewBox="0 0 32 32" enable-background="new 0 0 32 32" xml:space="preserve">
<g>
	<g>
		<g>
			<path fill="#8C495B" d="M3.5,20.8c0,0-0.7,0.4,0.8,0.9c1.5,0.4,11.5,2.4,15.4,3.1c3.9,0.6,5.6,0.7,6.6-0.9c1-1.5,4.6-5.6,4.3-6.7
				c-0.3-1.1-2.7-2.1-7-2.7c-4.3-0.6-10.2-1.5-12.3-0.8c-2.1,0.7-8.1,3.5-9,4.4C1.5,18.9,0,19.9,3.5,20.8z"/>
			<g>
				<path fill="#5B2938" d="M22.9,24c-0.2,0-0.4,0-0.6,0c-3.3-0.1-17.1-2.3-18.9-3l0.1-0.1c1.8,0.8,15.3,2.8,18.5,2.9
					c1.6,0.1,2.6-0.1,2.8-0.6c0.1-0.2,0-0.6-0.3-1c-0.6-0.9-5.7-1.5-7.2-1.5l-0.4,0c-1.5,0-3.8,0-5.5-0.4c-1.8-0.4-6.9-1.1-8.3-1.1
					c-0.7,0-0.9,0.1-0.9,0.2c-0.1,0.1,0,0.2,0,0.2l-0.1,0.1c0,0-0.3-0.3-0.2-0.5c0.1-0.2,0.5-0.3,1.1-0.3c1.4,0,6.6,0.7,8.5,1.1
					c1.7,0.4,3.9,0.5,5.5,0.5l0.4,0c1.5,0,7,0.7,7.6,1.7c0.4,0.5,0.4,0.9,0.3,1.2C25,23.7,24.2,24,22.9,24z"/>
			</g>
			<g>
				<path fill="#5B2938" d="M23.6,22.7c0,0-3.9-1-6.5-1c-2.7,0-6.2-0.5-8.2-1c-1-0.3-2-0.3-2.8-0.3c-0.8,0-1.5-0.2-2.1-0.4
					c-0.4-0.2-0.7-0.4-0.7-0.6c0-0.3,0.3-0.4,0.4-0.4l0.1,0.2c-0.1,0-0.3,0.1-0.3,0.3c0,0.1,0.1,0.2,0.6,0.4c0.6,0.2,1.2,0.2,2,0.3
					c0.8,0,1.8,0,2.8,0.3c2,0.6,5.6,0.9,8.1,0.9c2.6,0,6.5,1.2,6.5,1.2L23.6,22.7z"/>
			</g>
		</g>
		<g>
			<path fill="#AFA08B" d="M29.8,17.9c0,0,0.7,0.4-0.8,0.9c-1.5,0.4-11.5,2.4-15.4,3.1c-3.9,0.6-5.6,0.7-6.6-0.9
				c-1-1.5-4.6-5.6-4.3-6.7c0.3-1.1,2.7-2.1,7-2.7C14,10.9,19.9,10,22,10.7c2.1,0.7,8.1,3.5,9,4.4C31.8,15.9,33.2,16.9,29.8,17.9z"
				/>
			<g>
				<path fill="#7F705D" d="M10.4,21c0.2,0,0.4,0,0.6,0c3.3-0.1,17.1-2.3,18.9-3l-0.1-0.1c-1.8,0.8-15.3,2.8-18.5,2.9
					c-1.6,0.1-2.6-0.1-2.8-0.6c-0.1-0.2,0-0.6,0.3-1c0.6-0.9,5.7-1.5,7.2-1.5l0.4,0c1.5,0,3.8,0,5.5-0.4c1.8-0.4,6.9-1.1,8.3-1.1
					c0.7,0,0.9,0.1,0.9,0.2c0.1,0.1,0,0.2,0,0.2l0.1,0.1c0,0,0.3-0.3,0.2-0.5c-0.1-0.2-0.5-0.3-1.1-0.3c-1.4,0-6.6,0.7-8.5,1.1
					c-1.7,0.4-3.9,0.5-5.5,0.5l-0.4,0c-1.5,0-7,0.7-7.6,1.7C8,19.7,7.9,20,8,20.3C8.3,20.8,9,21,10.4,21z"/>
			</g>
			<g>
				<path fill="#7F705D" d="M9.7,19.8c0,0,3.9-1,6.5-1c2.7,0,6.2-0.5,8.2-1c1-0.3,2-0.3,2.8-0.3c0.8,0,1.5-0.2,2.1-0.4
					c0.4-0.2,0.7-0.4,0.7-0.6c0-0.3-0.3-0.4-0.4-0.4l-0.1,0.2c0.1,0,0.3,0.1,0.3,0.3c0,0.1-0.1,0.2-0.6,0.4c-0.6,0.2-1.2,0.2-2,0.3
					c-0.8,0-1.8,0-2.8,0.3c-2,0.6-5.6,0.9-8.1,0.9c-2.6,0-6.5,1.2-6.5,1.2L9.7,19.8z"/>
			</g>
		</g>
		<g>
			<path fill="#A09D9E" d="M2.2,14.3c0,0-0.7,0.4,0.8,0.9c1.5,0.4,11.5,2.4,15.4,3.1c3.9,0.6,5.6,0.7,6.6-0.9c1-1.5,4.6-5.6,4.3-6.7
				c-0.3-1.1-2.7-2.1-7-2.7C18,7.3,12.1,6.4,10,7.1c-2.1,0.7-8.1,3.5-9,4.4C0.2,12.3-1.2,13.3,2.2,14.3z"/>
			<g>
				<path fill="#666566" d="M21.6,17.4c-0.2,0-0.4,0-0.6,0c-3.3-0.1-17.1-2.3-18.9-3l0.1-0.1C4,15,17.5,17,20.7,17.1
					c1.6,0.1,2.6-0.1,2.8-0.6c0.1-0.2,0-0.6-0.3-1c-0.6-0.9-5.7-1.5-7.2-1.5l-0.4,0c-1.5,0-3.8,0-5.5-0.4c-1.8-0.4-6.9-1.1-8.3-1.1
					c-0.7,0-0.9,0.1-0.9,0.2C0.9,12.9,1,13,1,13l-0.1,0.1c0,0-0.3-0.3-0.2-0.5c0.1-0.2,0.5-0.3,1.1-0.3c1.4,0,6.6,0.7,8.5,1.1
					c1.7,0.4,3.9,0.5,5.5,0.5l0.4,0c1.5,0,7,0.7,7.6,1.7c0.4,0.5,0.4,0.9,0.3,1.2C23.7,17.2,23,17.4,21.6,17.4z"/>
			</g>
			<g>
				<path fill="#666566" d="M22.3,16.2c0,0-3.9-1-6.5-1c-2.7,0-6.2-0.5-8.2-1c-1-0.3-2-0.3-2.8-0.3c-0.8,0-1.5-0.2-2.1-0.4
					c-0.4-0.2-0.7-0.4-0.7-0.6c0-0.3,0.3-0.4,0.4-0.4l0.1,0.2c-0.1,0-0.3,0.1-0.3,0.3c0,0.1,0.1,0.2,0.6,0.4c0.6,0.2,1.2,0.2,2,0.3
					c0.8,0,1.8,0,2.8,0.3c2,0.6,5.6,0.9,8.1,0.9c2.6,0,6.5,1.2,6.5,1.2L22.3,16.2z"/>
			</g>
		</g>
	</g>
</g>
</svg>
