<?xml version="1.0" encoding="utf-8"?>
<!-- Generator: Adobe Illustrator 17.1.0, SVG Export Plug-In . SVG Version: 6.00 Build 0)  -->
<!DOCTYPE svg PUBLIC "-//W3C//DTD SVG 1.1//EN" "http://www.w3.org/Graphics/SVG/1.1/DTD/svg11.dtd">
<svg version="1.1" id="Layer_1" xmlns="http://www.w3.org/2000/svg" xmlns:xlink="http://www.w3.org/1999/xlink" x="0px" y="0px"
	 viewBox="0 0 32 32" enable-background="new 0 0 32 32" xml:space="preserve">
<g>
	<g>
		<g>
			<path fill="#F4CFB3" d="M19.6,16.1l-2.1,0.1v0c0,0,0,0,0,0l-0.2,0l-0.2,0c0,0,0,0,0,0v0l-2.1-0.1c-3.3-0.3-8.9-1.2-9.8-4
				c0,0,0,0,0,0c0-0.2,0.1-0.5,0.3-0.7C6.2,10.5,9,7.9,17.2,7.8v0c0.1,0,0.1,0,0.2,0c0.1,0,0.1,0,0.2,0v0c8.2,0.1,10.9,2.7,11.6,3.6
				c0.1,0.2,0.2,0.4,0.3,0.6C28.5,14.8,22.9,15.8,19.6,16.1z"/>
			<ellipse fill="#774F43" cx="17.3" cy="12.1" rx="10.3" ry="3.2"/>
			<path fill="#F47B0F" d="M0.4,18c0.2,5.1,5.9,3.9,5.9,3.9l0,0c0.2,0.4,0.5,0.9,0.8,1.3c3.4,4.8,9.1,4.9,10.3,4.9
				c1.2,0,6.9-0.1,10.3-4.9c3.8-5.2,1.8-11.1,1.8-11.1c-1.2,3.7-10.5,4.1-12,4.2c-1.6,0-10.8-0.5-12-4.2c0,0-0.2,0.7-0.4,1.8l0,0
				C4.9,13.8,0.2,13.4,0.4,18z M4.8,16L4.8,16c0,1.2,0.2,2.6,0.7,4l0,0c-2.7,0.3-2.8-1.8-2.8-1.8S2.4,16.2,4.8,16z"/>
			<path fill="#A4714A" d="M9.9,10.2c0,0,2.4-1.1,7.8-1.1c7.1,0,11,2.4,8.9,3.9c0,0,0.3-0.7-0.4-1.3C22.9,8.6,12.3,9.5,9.9,10.2z"/>
			<path fill="#ED9751" d="M5.7,14.3c0,0,0,8.1,5.3,11.4c0,0-2.8-5.3-2.8-9.9C8.2,15.7,6.3,15,5.7,14.3z"/>
		</g>
		<g>
			<path fill="#C1AFAA" d="M18.1,4.7c0.9,2.4-0.4,5.2-0.4,5.2s2.4-3.2,1.8-5.2"/>
			<path fill="#C1AFAA" d="M15.6,1.8c0,0,2.4,3.2,1.8,5.2C17,8.5,15.6,9,15.6,12.1c0,0-0.6-2.6,0.4-5.2C17,4.6,15.6,1.8,15.6,1.8z"
				/>
		</g>
	</g>
</g>
</svg>
