<?xml version="1.0" encoding="utf-8"?>
<!-- Generator: Adobe Illustrator 17.1.0, SVG Export Plug-In . SVG Version: 6.00 Build 0)  -->
<!DOCTYPE svg PUBLIC "-//W3C//DTD SVG 1.1//EN" "http://www.w3.org/Graphics/SVG/1.1/DTD/svg11.dtd">
<svg version="1.1" id="Layer_1" xmlns="http://www.w3.org/2000/svg" xmlns:xlink="http://www.w3.org/1999/xlink" x="0px" y="0px"
	 viewBox="0 0 32 32" enable-background="new 0 0 32 32" xml:space="preserve">
<g>
	<path fill="#006083" d="M9.1,13.5c0,0-8.2,0.6-8.2,2.8c0.1,2.2,2,5.5,13,8.1C24.8,27,31.5,25.1,31,22.3C30.6,19.5,26,14.3,9.1,13.5
		z"/>
	<path fill="#006083" d="M7.7,16.6c0,0,2.2-8.8,3.1-9.2c0.9-0.4,8.7-2.8,14.2,2c0,0,1.8,1.4,1.5,4.4c-0.3,3-1,7.4-1,7.4
		S14.1,23.6,7.7,16.6z"/>
	<path fill="#FFBF00" d="M23.5,20.1c-2,0.2-4,0-6-0.3c-2-0.4-4.1-0.9-5.8-1.9c-1.3-0.8-2.5-1.7-3.5-2.8c-0.2,0.9-0.4,1.5-0.4,1.5
		c6.4,7,17.8,4.5,17.8,4.5s0.1-0.4,0.2-1.1C25,20,24.2,20.1,23.5,20.1z"/>
	<path opacity="0.2" fill="#47AEA8" d="M12.4,7.6c0,0,8.2,2.7,10.4,3.4c2.2,0.7,2.3,0.4,1.6-0.5C23.6,9.5,20.9,6.6,12.4,7.6z"/>
</g>
<path opacity="0.1" fill="#FFF9EC" d="M31,22.3c-0.2-1.4-1.5-3.4-4.9-5.2c0.2-1.1,0.3-2.4,0.4-3.4c0.3-3-1.5-4.4-1.5-4.4
	c-2.1-1.8-4.4-2.6-6.7-2.8v18.5h-2C25.8,26.7,31.4,24.9,31,22.3z"/>
</svg>
