<?xml version="1.0" encoding="utf-8"?>
<!-- Generator: Adobe Illustrator 17.1.0, SVG Export Plug-In . SVG Version: 6.00 Build 0)  -->
<!DOCTYPE svg PUBLIC "-//W3C//DTD SVG 1.1//EN" "http://www.w3.org/Graphics/SVG/1.1/DTD/svg11.dtd">
<svg version="1.1" id="Layer_1" xmlns="http://www.w3.org/2000/svg" xmlns:xlink="http://www.w3.org/1999/xlink" x="0px" y="0px"
	 viewBox="0 0 32 32" enable-background="new 0 0 32 32" xml:space="preserve">
<g>
	<g>
		<g>
			<path fill="#21B8BF" d="M17,2.6c0,0,0,0.9,0.1,1.4c0.1,0.5,0.2,1.1,0.1,1.4c-0.1,0.3-0.1,0.7-0.1,0.7s0.5-0.1,0.8,0.1
				c0.3,0.1,1,0.3,1.5,0.1c0,0,0.1-0.3-0.4-0.5c-0.5-0.1-0.8-0.4-0.7-0.9c0-0.6,0.3-2,0.3-2S17.7,2.6,17,2.6z"/>
			<path fill="#0D6468" d="M17.9,6.2c-0.3-0.1-0.8-0.1-0.8-0.1s0,0.2,0,0.4h0.1c0,0,0.1-0.1,0.2,0h0.1c0,0,0.1-0.1,0.2,0h0.2V6.3
				c0,0,0.1,0,0.3,0.1c0.1,0.1,0.2,0.1,0.2,0.1s0.1-0.1,0.2,0h0.1c0,0,0.1-0.1,0.2,0h0.1c0,0,0.1-0.1,0.2,0h0.1c0,0,0.1-0.2,0.2-0.1
				l0,0l0-0.2C18.9,6.4,18.2,6.3,17.9,6.2z"/>
		</g>
		<g>
			<path fill="#3FCAD8" d="M16.1,2.9c0,0,0,0.9,0.1,1.4c0.1,0.5,0.2,1.1,0.1,1.4c-0.1,0.3-0.1,0.7-0.1,0.7s0.5-0.1,0.8,0.1
				c0.3,0.1,1,0.3,1.5,0.1c0,0,0.1-0.3-0.4-0.5c-0.5-0.1-0.8-0.4-0.7-0.9c0-0.6,0.3-2,0.3-2S16.8,2.8,16.1,2.9z"/>
			<path fill="#137C87" d="M17,6.4c-0.3-0.1-0.8-0.1-0.8-0.1s0,0.2,0,0.4h0.1c0,0,0.1-0.1,0.2,0h0.1c0,0,0.1-0.1,0.2,0h0.2V6.5
				c0,0,0.1,0,0.3,0.1c0.1,0.1,0.2,0.1,0.2,0.1s0.1-0.1,0.2,0h0.1c0,0,0.1-0.1,0.2,0H18c0,0,0.1-0.1,0.2,0h0.1c0,0,0.1-0.2,0.2-0.1
				l0,0l0-0.2C18,6.7,17.3,6.5,17,6.4z"/>
			<path fill="#09666B" d="M16.9,3.5"/>
		</g>
	</g>
</g>
<g>
	<path fill="#CCC4B8" d="M-51.6-151.4"/>
</g>
<path fill="#F2BD66" d="M-55.3-157.7"/>
<path fill="#EFCC9A" d="M-55.3-157.7"/>
<path fill="#F2BD66" d="M-55.3-157.7"/>
<path fill="#EFA91B" d="M-55.3-157.7"/>
<g>
	<g>
		<g>
			<g>
				<g>
					<path fill="#D0C5B3" d="M26.4,5.3c0,0-0.2-1.3-1.7-1.7c-1.5-0.4-5.6-1.4-6.4-2.5c0,0-0.7-0.3-2.4-0.3c-1.7,0-2.4,0.3-2.4,0.3
						c-0.8,1-4.9,2.1-6.4,2.5C5.5,4,5.4,5.3,5.4,5.3S8.1,21.7,7.5,23c-0.6,1.3,0.2,2.7,1.1,4c0.8,1.2,7.3,0.8,7.3,0.8
						s6.5,0.5,7.3-0.8c0.8-1.2,1.6-2.7,1.1-4C23.7,21.7,26.4,5.3,26.4,5.3z"/>
					<path fill="#A59784" d="M18.3,1.1c0,0-0.7-0.3-2.4-0.3c-1.7,0-2.4,0.3-2.4,0.3c-0.3,0.3-0.9,0.7-1.6,1l0,0.1c0,0,0.3,2.8,4,2.8
						s4.2-2.3,4.2-2.8v0C19.3,1.9,18.6,1.5,18.3,1.1z"/>
					<g>
						<g>
							<defs>
								<path id="SVGID_1_" d="M18.3,1.1c0,0-0.7-0.3-2.4-0.3c-1.7,0-2.4,0.3-2.4,0.3c-0.3,0.3-0.9,0.7-1.6,1l0,0.1
									c0,0,0.3,2.8,4,2.8s4.2-2.3,4.2-2.8v0C19.3,1.9,18.6,1.5,18.3,1.1z"/>
							</defs>
							<clipPath id="SVGID_2_">
								<use xlink:href="#SVGID_1_"  overflow="visible"/>
							</clipPath>
							<g clip-path="url(#SVGID_2_)">
								<path fill="#87796F" d="M11.7,2.3c0,0,1.4-0.5,1.8-1l0.2,0.2c0,0-1.3,1-1.9,1.1V2.3z"/>
								<path fill="#87796F" d="M11.7,2.9c0.1,0,1.9-0.8,2.2-1.4l0.2,0.1c0,0-1.7,1.5-2.3,1.5C11.2,3.2,11.7,2.9,11.7,2.9z"/>
								<path fill="#87796F" d="M12.1,3.4c0,0,2.1-1,2.3-1.6h0.3c0,0-1.4,1.7-2.5,1.8L12.1,3.4z"/>
								<path fill="#87796F" d="M12.5,4c0,0,2.2-1.3,2.4-2h0.2c0,0-0.7,1.6-2.3,2.2L12.7,4L12.5,4z"/>
								<path fill="#87796F" d="M13.1,4.5c0,0,2-1.3,2.2-2.4h0.2c0,0-1,2-2.2,2.6L13.1,4.5z"/>
								<path fill="#87796F" d="M14.1,5C14.1,5,14.1,5,14.1,5c0.2-0.3,1.6-2,1.6-2.9h0.2c0,0-0.7,2.3-1.5,3L14.1,5z"/>
								<path fill="#87796F" d="M16.1,2.1c0,0-0.7,2.5-0.8,3.2h0.3l0.7-3.3L16.1,2.1z"/>
								<path fill="#87796F" d="M16.5,1.9c0,0-0.4,2.6-0.2,3.3h0.3c0,0,0-2.8,0.1-3.3C16.8,1.4,16.5,1.9,16.5,1.9z"/>
								<path fill="#87796F" d="M16.9,1.9c0,0,0,2.3,0.8,3.1L17.9,5c0,0-0.9-2.6-0.7-3.1L16.9,1.9z"/>
								<path fill="#87796F" d="M17.4,1.8c0,0,0.4,2.2,1.2,2.8l0.4-0.2c0,0-1.3-2.4-1.2-2.8L17.4,1.8z"/>
								<path fill="#87796F" d="M17.9,1.6c0,0,0.7,2,1.5,2.4l0.2-0.2c0,0-1.5-2.1-1.5-2.3C18.1,1.3,17.9,1.6,17.9,1.6z"/>
								<path fill="#87796F" d="M18.2,1.3c0,0,1,1.3,1.9,1.7V2.8C20.1,2.8,18.2,1.1,18.2,1.3C18.2,1.3,18.2,1.3,18.2,1.3z"/>
							</g>
						</g>
						<path fill="#77695D" d="M13.5,1.1C13.4,1.2,13.4,1.2,13.5,1.1c-0.1,0.1,0.6,1,2.4,1c1.9,0,2.4-0.5,2.4-1c0,0-0.7-0.3-2.4-0.3
							C14.1,0.8,13.5,1.1,13.5,1.1z"/>
					</g>
				</g>
				<polygon fill="#AFA397" points="7.1,7.8 8.5,6.5 10,9 11.8,6.5 13.2,8.8 14.6,6.5 16,8.7 17.4,6.5 18.8,8.9 20.3,6.5 21.7,8.6 
					23.4,6.5 24.8,7.9 24.4,9 23.6,8.2 21.8,11.2 20.4,8.5 18.8,11.2 17.2,8.5 16,11.2 14.6,8.5 13.2,11.2 11.8,8.4 9.9,11.2 
					8.3,8.2 7.5,8.9 				"/>
				<polygon fill="#AFA397" points="24.4,13.2 24.8,12.1 23.4,10.4 21.8,12.9 20.3,10.7 18.8,13 17.4,10.7 16,12.8 14.6,10.7 
					13.2,12.9 11.8,10.7 10,13.2 8.5,10.7 7.1,11.9 7.5,13 8.3,12.3 9.9,15.3 11.8,12.5 13.2,15.3 14.6,12.6 16,15.3 17.2,12.7 
					18.8,15.3 20.4,12.6 21.8,15.3 23.5,12 				"/>
			</g>
			<path fill="#A59784" d="M5.4,5.3c0,0-0.9,0.6-0.9,2.2c0,1.6-0.1,8-0.4,9.9c-0.3,1.8-1,8,0.6,9.6c0,0,2.4,0.7,4,0c0,0-1-2-0.7-3.7
				c0.3-1.6,0.2-3.8,0-5.2c-0.2-1.4-0.2-5.8,0-6.9C8.2,10.2,6.4,5.4,5.4,5.3z"/>
			<path fill="#A59784" d="M26.6,5.3c0,0,0.9,0.6,0.9,2.2c0,1.6,0.1,8,0.4,9.9c0.3,1.8,1,8-0.6,9.6c0,0-2.4,0.7-4,0c0,0,1-2,0.7-3.7
				c-0.3-1.6-0.2-3.8,0-5.2c0.2-1.4,0.2-5.8,0-6.9C23.7,10.2,25.6,5.4,26.6,5.3z"/>
		</g>
		<g>
			<path fill="#77695D" d="M8.6,27c0,0,0.2,1.7,0.2,2.1c0,0,0.6,0.8,7.4,0.9c0,0,7,0,7.4-0.4c0.4-0.4-0.3-2.6-0.3-2.6H8.6z"/>
			<g>
				<g>
					<g>
						<path fill="#897A6B" d="M4.7,27c0,0-0.1,1.4,0.3,1.8c0,0,2.4,0.4,3.8,0.3c0,0,0.1-1.2-0.2-2.1C8.7,27,7.6,27.5,4.7,27z"/>
						<path fill="#77695D" d="M5.5,28.8c0.1,0,0.2,0,0.3,0c-0.1-0.4-0.4-1.2-0.4-1.8c-0.1,0-0.2,0-0.3,0C5.1,27.3,5.2,28,5.5,28.8z"
							/>
						<path fill="#77695D" d="M6.2,28.9c0.1,0,0.2,0,0.3,0c-0.1-0.4-0.3-1.4-0.4-1.8c-0.1,0-0.1,0-0.2,0C5.9,27.5,6,28.4,6.2,28.9z"
							/>
						<path fill="#77695D" d="M6.9,29C7,29,7,29,7.1,29c-0.1-0.4-0.3-1.3-0.3-1.8c-0.1,0-0.1,0-0.2,0C6.7,27.6,6.7,28.5,6.9,29z"/>
						<path fill="#77695D" d="M7.3,27.2c0,0-0.1,0-0.1,0c0.1,0.4,0.2,1.3,0.3,1.8c0,0,0.1,0,0.1,0C7.5,28.6,7.4,27.7,7.3,27.2z"/>
						<path fill="#77695D" d="M8,29.1c0.1,0,0.1,0,0.2,0c0-0.4,0-1.2-0.2-1.9c-0.1,0-0.2,0-0.3,0C7.8,27.6,8,28.5,8,29.1z"/>
						<path fill="#77695D" d="M8.7,29.1c0-0.4-0.1-1.4-0.3-2c-0.1,0-0.1,0-0.2,0c0.1,0.4,0.4,1.4,0.3,2C8.6,29.1,8.6,29.1,8.7,29.1z
							"/>
					</g>
					<g>
						<path fill="#897A6B" d="M27.2,27c0,0,0.1,1.4-0.3,1.8c0,0-2.4,0.4-3.8,0.3c0,0-0.1-1.2,0.2-2.1C23.2,27,24.4,27.5,27.2,27z"/>
						<path fill="#77695D" d="M26.5,28.8c-0.1,0-0.2,0-0.3,0c0.1-0.4,0.4-1.2,0.4-1.8c0.1,0,0.2,0,0.3,0
							C26.8,27.3,26.7,28,26.5,28.8z"/>
						<path fill="#77695D" d="M25.8,28.9c-0.1,0-0.2,0-0.3,0c0.1-0.4,0.3-1.4,0.4-1.8c0.1,0,0.1,0,0.2,0C26,27.5,26,28.4,25.8,28.9z
							"/>
						<path fill="#77695D" d="M25.1,29c-0.1,0-0.1,0-0.2,0c0.1-0.4,0.3-1.3,0.3-1.8c0.1,0,0.1,0,0.2,0C25.3,27.6,25.2,28.5,25.1,29z
							"/>
						<path fill="#77695D" d="M24.6,27.2c0,0,0.1,0,0.1,0c-0.1,0.4-0.2,1.3-0.3,1.8c0,0-0.1,0-0.1,0C24.4,28.6,24.5,27.7,24.6,27.2z
							"/>
						<path fill="#77695D" d="M24,29.1c-0.1,0-0.1,0-0.2,0c0-0.4,0-1.2,0.2-1.9c0.1,0,0.2,0,0.3,0C24.2,27.6,23.9,28.5,24,29.1z"/>
						<path fill="#77695D" d="M23.2,29.1c0-0.4,0.1-1.4,0.3-2c0.1,0,0.1,0,0.2,0c-0.1,0.4-0.4,1.4-0.3,2
							C23.4,29.1,23.3,29.1,23.2,29.1z"/>
					</g>
				</g>
				<g>
					<defs>
						<path id="SVGID_3_" d="M8.6,27c0,0,0.2,1.7,0.2,2.1c0,0,0.6,0.8,7.4,0.9c0,0,7,0,7.4-0.4c0.4-0.4-0.3-2.6-0.3-2.6H8.6z"/>
					</defs>
					<clipPath id="SVGID_4_">
						<use xlink:href="#SVGID_3_"  overflow="visible"/>
					</clipPath>
					<g clip-path="url(#SVGID_4_)">
						<path fill="#87796F" d="M10.1,29.7c0,0,0.5-1.4,0-2.9h0.4c0,0,0.1,2.7-0.2,3C10,30.2,10.1,29.7,10.1,29.7z"/>
						<path fill="#87796F" d="M10.6,29.7c0,0,0.5-1.4,0-2.9H11c0,0,0.1,2.7-0.2,3C10.5,30.2,10.6,29.7,10.6,29.7z"/>
						<path fill="#87796F" d="M11.2,29.9c0,0,0.5-1.5,0-3.1h0.3c0,0,0.1,2.9-0.2,3.2C11.1,30.4,11.2,29.9,11.2,29.9z"/>
						<path fill="#87796F" d="M10.6,29.7c0,0,0.5-1.4,0-2.9H11c0,0,0.1,2.7-0.2,3C10.5,30.2,10.6,29.7,10.6,29.7z"/>
						<path fill="#87796F" d="M11.2,29.9c0,0,0.5-1.5,0-3.1h0.3c0,0,0.1,2.9-0.2,3.2C11.1,30.4,11.2,29.9,11.2,29.9z"/>
						<path fill="#87796F" d="M13,30.3c0,0,0.5-1.7,0-3.5h0.4c0,0,0.1,3.3-0.2,3.7C12.8,30.9,13,30.3,13,30.3z"/>
						<path fill="#87796F" d="M11.9,30c0,0,0.3-1.6,0-3.2h0.2c0,0,0.1,3-0.1,3.4C11.8,30.6,11.9,30,11.9,30z"/>
						<path fill="#87796F" d="M12.4,30c0,0,0.5-1.6,0-3.2h0.3c0,0,0.1,3-0.2,3.4C12.3,30.6,12.4,30,12.4,30z"/>
						<path fill="#87796F" d="M13.5,30.3c0,0,0.5-1.7,0-3.5h0.3c0,0,0.1,3.3-0.2,3.7C13.4,30.9,13.5,30.3,13.5,30.3z"/>
						<path fill="#87796F" d="M14.1,30.5c0,0,0.5-1.8,0-3.7h0.3c0,0,0.1,3.5-0.2,3.9C14,31.2,14.1,30.5,14.1,30.5z"/>
						<path fill="#87796F" d="M9.1,29.5c0,0,0.3-1.3,0-2.6h0.2c0,0,0.1,2.5-0.1,2.8C9,29.9,9.1,29.5,9.1,29.5z"/>
						<path fill="#87796F" d="M9.6,29.5c0,0,0.5-1.3,0-2.6h0.3c0,0,0.1,2.5-0.2,2.8C9.4,29.9,9.6,29.5,9.6,29.5z"/>
						<path fill="#87796F" d="M10.6,29.7c0,0,0.5-1.4,0-2.9H11c0,0,0.1,2.7-0.2,3C10.5,30.2,10.6,29.7,10.6,29.7z"/>
						<path fill="#87796F" d="M11.2,29.9c0,0,0.5-1.5,0-3.1h0.3c0,0,0.1,2.9-0.2,3.2C11.1,30.4,11.2,29.9,11.2,29.9z"/>
						<path fill="#87796F" d="M13,30.3c0,0,0.5-1.7,0-3.5h0.4c0,0,0.1,3.3-0.2,3.7C12.8,30.9,13,30.3,13,30.3z"/>
						<path fill="#87796F" d="M11.9,30c0,0,0.3-1.6,0-3.2h0.2c0,0,0.1,3-0.1,3.4C11.8,30.6,11.9,30,11.9,30z"/>
						<path fill="#87796F" d="M12.4,30c0,0,0.5-1.6,0-3.2h0.3c0,0,0.1,3-0.2,3.4C12.3,30.6,12.4,30,12.4,30z"/>
						<path fill="#87796F" d="M13.5,30.3c0,0,0.5-1.7,0-3.5h0.3c0,0,0.1,3.3-0.2,3.7C13.4,30.9,13.5,30.3,13.5,30.3z"/>
						<path fill="#87796F" d="M14.1,30.5c0,0,0.5-1.8,0-3.7h0.3c0,0,0.1,3.5-0.2,3.9C14,31.2,14.1,30.5,14.1,30.5z"/>
						<path fill="#87796F" d="M21.8,29.9c0,0-0.5-1.5,0-3.1h-0.4c0,0-0.1,2.9,0.2,3.3C22,30.5,21.8,29.9,21.8,29.9z"/>
						<path fill="#87796F" d="M22.9,29.7c0,0-0.3-1.4,0-2.8h-0.2c0,0-0.1,2.7,0.1,3C23,30.2,22.9,29.7,22.9,29.7z"/>
						<path fill="#87796F" d="M22.4,29.7c0,0-0.5-1.4,0-2.8H22c0,0-0.1,2.7,0.2,3C22.5,30.2,22.4,29.7,22.4,29.7z"/>
						<path fill="#87796F" d="M21.3,29.9c0,0-0.5-1.5,0-3.1H21c0,0-0.1,2.9,0.2,3.3C21.4,30.5,21.3,29.9,21.3,29.9z"/>
						<path fill="#87796F" d="M20.7,30.1c0,0-0.5-1.6,0-3.3h-0.3c0,0-0.1,3.1,0.2,3.5C20.8,30.7,20.7,30.1,20.7,30.1z"/>
						<path fill="#87796F" d="M19,30.6c0,0-0.5-1.8,0-3.8h-0.4c0,0-0.1,3.5,0.2,4C19.1,31.3,19,30.6,19,30.6z"/>
						<path fill="#87796F" d="M20,30.3c0,0-0.3-1.7,0-3.5h-0.2c0,0-0.1,3.2,0.1,3.7C20.1,30.9,20,30.3,20,30.3z"/>
						<path fill="#87796F" d="M19.5,30.3c0,0-0.5-1.7,0-3.5h-0.3c0,0-0.1,3.2,0.2,3.7C19.6,30.9,19.5,30.3,19.5,30.3z"/>
						<path fill="#87796F" d="M18.5,30.6c0,0-0.5-1.8,0-3.8h-0.3c0,0-0.1,3.5,0.2,4C18.6,31.3,18.5,30.6,18.5,30.6z"/>
						<path fill="#87796F" d="M17.8,30.9c0,0-0.5-2,0-4h-0.3c0,0-0.1,3.8,0.2,4.3C18,31.6,17.8,30.9,17.8,30.9z"/>
						<path fill="#87796F" d="M15.1,26.9c0,0-0.5,1.8,0,3.7h-0.3c0,0-0.1-3.5,0.2-3.9C15.2,26.2,15.1,26.9,15.1,26.9z"/>
						<path fill="#87796F" d="M15.7,26.9c0,0-0.5,1.8,0,3.7h-0.3c0,0-0.1-3.5,0.2-3.9C15.8,26.2,15.7,26.9,15.7,26.9z"/>
						<path fill="#87796F" d="M16.3,26.9c0,0-0.5,1.8,0,3.7h-0.3c0,0-0.1-3.5,0.2-3.9C16.4,26.2,16.3,26.9,16.3,26.9z"/>
						<path fill="#87796F" d="M17,30.3c0,0,0.4-1.8,0-3.7h0.3c0,0,0.1,3.5-0.1,3.9C16.9,30.9,17,30.3,17,30.3z"/>
						<path fill="#87796F" d="M16.5,30.3c0,0,0.4-1.8,0-3.7h0.3c0,0,0.1,3.5-0.1,3.9C16.4,30.9,16.5,30.3,16.5,30.3z"/>
					</g>
				</g>
			</g>
		</g>
	</g>
</g>
</svg>
