<?xml version="1.0" encoding="utf-8"?>
<!-- Generator: Adobe Illustrator 17.1.0, SVG Export Plug-In . SVG Version: 6.00 Build 0)  -->
<!DOCTYPE svg PUBLIC "-//W3C//DTD SVG 1.1//EN" "http://www.w3.org/Graphics/SVG/1.1/DTD/svg11.dtd">
<svg version="1.1" id="Layer_1" xmlns="http://www.w3.org/2000/svg" xmlns:xlink="http://www.w3.org/1999/xlink" x="0px" y="0px"
	 viewBox="0 0 32 32" enable-background="new 0 0 32 32" xml:space="preserve">
<g>
	<g>
		<g>
			<path fill="#21B8BF" d="M11.1,0.6c0,0-0.3,6.5,0.4,10.2c0.6,3.6,1.5,8.2,1.1,10.2c-0.4,2.1-0.7,5.2-0.7,5.2s3.6-0.4,6,0.4
				c2.4,0.8,7.5,2.1,11.4,0.5c0,0,1.1-2.6-2.9-3.5c-4-0.9-5.8-2.8-5.5-6.9c0.3-4.1,2.5-14.5,2.5-14.5S16.3,0.5,11.1,0.6z"/>
			<path fill="#0D6468" d="M17.9,26.6c-2.4-0.8-6-0.4-6-0.4s-0.1,1.5,0.2,2.7h0.9c0,0,0.5-0.8,1.3,0H15c0,0,0.4-0.8,1.2,0h1.2v-1.1
				c0,0,1-0.2,2,0.5c1,0.7,1.6,0.6,1.6,0.6s0.6-0.8,1.2,0.3h0.8c0,0,0.5-0.9,1.4,0h0.8c0,0,0.4-0.9,1.5,0h0.7c0,0,0.7-1.3,1.4-0.5
				l0.3-0.2l0-1.5C25.4,28.7,20.2,27.4,17.9,26.6z"/>
		</g>
		<g>
			<path fill="#3FCAD8" d="M4.4,2.2c0,0-0.3,6.5,0.4,10.2c0.6,3.6,1.5,8.2,1.1,10.2c-0.4,2.1-0.7,5.2-0.7,5.2s3.6-0.4,6,0.4
				c2.4,0.8,7.5,2.1,11.4,0.5c0,0,1.1-2.6-2.9-3.5c-4-0.9-5.8-2.8-5.5-6.9c0.3-4.1,2.5-14.5,2.5-14.5S9.6,2.1,4.4,2.2z"/>
			<path fill="#137C87" d="M11.2,28.2c-2.4-0.8-6-0.4-6-0.4s-0.1,1.5,0.2,2.7h0.9c0,0,0.5-0.8,1.3,0h0.8c0,0,0.4-0.8,1.2,0h1.2v-1.1
				c0,0,1-0.2,2,0.5c1,0.7,1.6,0.6,1.6,0.6s0.6-0.8,1.2,0.3h0.8c0,0,0.5-0.9,1.4,0h0.8c0,0,0.4-0.9,1.5,0h0.7c0,0,0.7-1.3,1.4-0.5
				l0.3-0.2l0-1.5C18.7,30.2,13.6,28.9,11.2,28.2z"/>
			<path fill="#09666B" d="M10.3,7"/>
		</g>
	</g>
</g>
</svg>
