<?xml version="1.0" encoding="utf-8"?>
<!-- Generator: Adobe Illustrator 17.1.0, SVG Export Plug-In . SVG Version: 6.00 Build 0)  -->
<!DOCTYPE svg PUBLIC "-//W3C//DTD SVG 1.1//EN" "http://www.w3.org/Graphics/SVG/1.1/DTD/svg11.dtd">
<svg version="1.1" id="Layer_1" xmlns="http://www.w3.org/2000/svg" xmlns:xlink="http://www.w3.org/1999/xlink" x="0px" y="0px"
	 viewBox="0 0 32 32" enable-background="new 0 0 32 32" xml:space="preserve">
<g>
	<g>
		<g>
			<path fill="#F4470B" d="M14.1,12.5c0.2-1.4,0.6-3.9,0-7.4c-0.6-3.5-2.7-4.8-4.6-4.6C6.9,0.9,5.2,3.3,4.8,7.8
				C4.3,12.4,5.9,18.4,6,22.5c0,1.6,0,8.7,4.7,8.7c0,0,3.2-0.1,3.2-4.7S13.6,16.6,14.1,12.5z"/>
			<path fill="#C44B33" d="M10.1,7.3c-1-0.1-2.7,0.4-3.2,2.5c-0.5,2.1-0.1,5.3,0.2,8.8c0.3,3.5,1.9,10.9,3,11.6
				c1.1,0.7,2.3-0.6,2.6-2.7c0.3-2.1,0.5-7.5,0.5-9.4c0-1.9-0.1-6.9-0.4-7.9C12.5,9.3,12.1,7.5,10.1,7.3z"/>
			<path fill="#E2D7BA" d="M12.8,27.4c0-0.1,0-0.1,0-0.2c0,0,0-0.1,0-0.1c0-0.1,0-0.1,0-0.2c0,0,0-0.1,0-0.1c0-0.1,0-0.1,0-0.2
				c0,0,0-0.1,0-0.1c0-0.1,0-0.1,0-0.2c0,0,0-0.1,0-0.1c0-0.1,0-0.1,0-0.2c0,0,0-0.1,0-0.1c0-0.1,0-0.1,0-0.2c0,0,0-0.1,0-0.1
				c0-0.1,0-0.1,0-0.2c0,0,0-0.1,0-0.1c0-0.1,0-0.2,0-0.2c0,0,0-0.1,0-0.1c0-0.1,0-0.2,0-0.3c0,0,0-0.1,0-0.1c0-0.1,0-0.2,0-0.3
				c0,0,0,0,0-0.1c0-0.1,0-0.2,0-0.3c0,0,0,0,0-0.1c0-0.1,0-0.2,0-0.3c0,0,0,0,0,0c0-0.4,0-0.7,0.1-1.1v0c0,0-1.3-3.6-1.2-6
				c0.1-2.3,1.3-2.7,1.2-3.8c0,0,0,0,0,0c0,0,0-0.1,0-0.1c0,0,0,0,0,0c0-0.1,0-0.1,0-0.2c0,0,0-0.1,0-0.1c0,0,0-0.1,0-0.1
				c0,0,0-0.1,0-0.1c0,0,0-0.1,0-0.1c0,0,0-0.1,0-0.1c0-0.1,0-0.1,0-0.2c0,0,0-0.1,0-0.1c0,0,0-0.1,0-0.1c0,0,0-0.1,0-0.1
				c0-0.1,0-0.1,0-0.1c0,0,0,0,0,0c0-0.1,0-0.1,0-0.2c0,0,0,0,0-0.1c0,0,0-0.1,0-0.1c0,0,0,0,0-0.1c0,0,0-0.1,0-0.1c0,0,0,0,0,0
				c0,0,0-0.1,0-0.1c0,0,0,0,0,0c0,0,0-0.1,0-0.1c0,0,0,0,0,0c0,0,0-0.1,0-0.1c-0.3-1-0.7-2.8-2.7-3c-1-0.1-2.7,0.4-3.2,2.5
				c-0.5,2.1-0.1,5.3,0.2,8.8c0,0.1,0,0.1,0,0.2c0.3,3.6,1.9,10.7,3,11.5c1.1,0.7,2.3-0.6,2.6-2.7C12.7,27.6,12.7,27.5,12.8,27.4
				C12.7,27.4,12.8,27.4,12.8,27.4z"/>
			<path fill="#A52C0C" d="M12.2,4.8c-0.6,0-1.4,0.2-1.8,0.4c0.4-0.4,1-1.1,1.1-2l-0.3,0c-0.1,0.9-0.9,1.7-1.2,2c0,0,0,0-0.1,0
				c0,0-0.1,0-0.1,0c-0.3-0.3-1.1-1.1-1.2-2l-0.3,0c0.1,0.9,0.7,1.6,1.1,2C9,4.9,8.2,4.6,7.6,4.6c-0.8,0-0.9,0.5-0.9,0.7
				c0,0.3,0.1,0.8,1,0.8c0.7,0,1.5-0.3,1.9-0.4C9.7,5.8,9.8,5.9,10,5.9c0.1,0,0.2-0.1,0.3-0.2c0.5,0.2,1.4,0.6,2.1,0.6
				c0.8,0,0.9-0.5,0.9-0.7C13.2,5.3,13.1,4.8,12.2,4.8z M7.7,5.9C7.1,5.9,7,5.6,7,5.4c0-0.2,0.1-0.5,0.6-0.5c0.6,0,1.5,0.3,2,0.5
				C9.1,5.6,8.3,5.9,7.7,5.9z M12.3,6c-0.6,0-1.5-0.3-2-0.5C10.8,5.3,11.6,5,12.2,5C12.9,5,13,5.3,13,5.5C13,5.8,12.9,6,12.3,6z"/>
		</g>
		<g>
			<path fill="#F4470B" d="M16.6,12.5c-0.2-1.4-0.6-3.9,0-7.4c0.6-3.5,2.7-4.8,4.6-4.6c2.6,0.4,4.3,2.8,4.8,7.3
				c0.5,4.5-1.2,10.6-1.2,14.6c0,1.6,0,8.7-4.7,8.7c0,0-3.2-0.1-3.2-4.7S17.1,16.6,16.6,12.5z"/>
			<path fill="#C44B33" d="M20.6,7.3c1-0.1,2.7,0.4,3.2,2.5c0.5,2.1,0.1,5.3-0.2,8.8c-0.3,3.5-1.9,10.9-3,11.6
				c-1.1,0.7-2.3-0.6-2.6-2.7c-0.3-2.1-0.5-7.5-0.5-9.4c0-1.9,0.1-6.9,0.4-7.9C18.2,9.3,18.6,7.5,20.6,7.3z"/>
			<path fill="#E2D7BA" d="M18,27.4c0-0.1,0-0.1,0-0.2c0,0,0-0.1,0-0.1c0-0.1,0-0.1,0-0.2c0,0,0-0.1,0-0.1c0-0.1,0-0.1,0-0.2
				c0,0,0-0.1,0-0.1c0-0.1,0-0.1,0-0.2c0,0,0-0.1,0-0.1c0-0.1,0-0.1,0-0.2c0,0,0-0.1,0-0.1c0-0.1,0-0.1,0-0.2c0,0,0-0.1,0-0.1
				c0-0.1,0-0.1,0-0.2c0,0,0-0.1,0-0.1c0-0.1,0-0.2,0-0.2c0,0,0-0.1,0-0.1c0-0.1,0-0.2,0-0.3c0,0,0-0.1,0-0.1c0-0.1,0-0.2,0-0.3
				c0,0,0,0,0-0.1c0-0.1,0-0.2,0-0.3c0,0,0,0,0-0.1c0-0.1,0-0.2,0-0.3c0,0,0,0,0,0c0-0.4,0-0.7-0.1-1.1l0,0c0,0,1.3-3.6,1.2-6
				c-0.1-2.3-1.3-2.7-1.2-3.8c0,0,0,0,0,0c0,0,0-0.1,0-0.1c0,0,0,0,0,0c0-0.1,0-0.1,0-0.2c0,0,0-0.1,0-0.1c0,0,0-0.1,0-0.1
				c0,0,0-0.1,0-0.1c0,0,0-0.1,0-0.1c0,0,0-0.1,0-0.1c0-0.1,0-0.1,0-0.2c0,0,0-0.1,0-0.1c0,0,0-0.1,0-0.1c0,0,0-0.1,0-0.1
				c0-0.1,0-0.1,0-0.1c0,0,0,0,0,0c0-0.1,0-0.1,0-0.2c0,0,0,0,0-0.1c0,0,0-0.1,0-0.1c0,0,0,0,0-0.1c0,0,0-0.1,0-0.1c0,0,0,0,0,0
				c0,0,0-0.1,0-0.1c0,0,0,0,0,0c0,0,0-0.1,0-0.1c0,0,0,0,0,0c0,0,0-0.1,0-0.1c0.3-1,0.7-2.8,2.7-3c1-0.1,2.7,0.4,3.2,2.5
				c0.5,2.1,0.1,5.3-0.2,8.8c0,0.1,0,0.1,0,0.2c-0.3,3.6-1.9,10.7-3,11.5c-1.1,0.7-2.3-0.6-2.6-2.7C18,27.6,18,27.5,18,27.4
				C18,27.4,18,27.4,18,27.4z"/>
			<path fill="#A52C0C" d="M17.5,5.5c0,0.3,0.1,0.7,0.9,0.7c0.7,0,1.6-0.4,2.1-0.6c0.1,0.1,0.2,0.2,0.3,0.2c0.1,0,0.2-0.1,0.3-0.2
				c0.4,0.2,1.3,0.4,1.9,0.4c0.9,0,1-0.5,1-0.8c0-0.3-0.1-0.7-0.9-0.7c-0.6,0-1.4,0.3-1.9,0.5c0.4-0.4,1-1.1,1.1-2l-0.3,0
				c-0.1,0.9-0.9,1.7-1.2,2c0,0,0,0-0.1,0c0,0-0.1,0-0.1,0c-0.3-0.3-1.1-1.1-1.2-2l-0.3,0c0.1,0.9,0.7,1.6,1.1,2
				c-0.5-0.2-1.2-0.4-1.8-0.4C17.6,4.8,17.5,5.3,17.5,5.5z M21.1,5.4c0.5-0.2,1.4-0.5,2-0.5c0.5,0,0.6,0.2,0.6,0.5
				c0,0.2-0.1,0.5-0.7,0.5C22.4,5.9,21.6,5.6,21.1,5.4z M17.8,5.5c0-0.2,0.1-0.5,0.7-0.5c0.6,0,1.4,0.3,1.9,0.4
				C19.9,5.7,19,6,18.4,6C17.8,6,17.8,5.8,17.8,5.5z"/>
		</g>
	</g>
</g>
</svg>
