<?xml version="1.0" encoding="utf-8"?>
<!-- Generator: Adobe Illustrator 17.1.0, SVG Export Plug-In . SVG Version: 6.00 Build 0)  -->
<!DOCTYPE svg PUBLIC "-//W3C//DTD SVG 1.1//EN" "http://www.w3.org/Graphics/SVG/1.1/DTD/svg11.dtd">
<svg version="1.1" id="Layer_1" xmlns="http://www.w3.org/2000/svg" xmlns:xlink="http://www.w3.org/1999/xlink" x="0px" y="0px"
	 viewBox="0 0 32 32" enable-background="new 0 0 32 32" xml:space="preserve">
<g>
	<path fill-rule="evenodd" clip-rule="evenodd" fill="#FBE082" d="M1.1,7.4c0,0,5.7,15.6,9.2,18.4c3.9,3.1,22.7-5.3,20.8-9.6
		c-1.8-4.3-4.8-2.3-7.5-1.4c-2.6,1-8.4,4-9.8,2.2C12.6,15.3,8.1,4.5,8.1,4.5L1.1,7.4z"/>
	<path fill-rule="evenodd" clip-rule="evenodd" fill="#FCCF00" d="M2.3,10.3C1.6,8.5,1.1,7.4,1.1,7.4l6.9-2.9c0,0,0.5,1.1,1.2,2.8
		L2.3,10.3z"/>
	<path fill-rule="evenodd" clip-rule="evenodd" fill="#FCCF00" d="M25.5,18.4c-0.1-1.4,0-2.8,0.5-4.1c0.1-0.1,0.1-0.3,0.2-0.4
		c1.9-0.6,3.7-0.6,5,2.3c0.7,1.6-1.6,3.9-4.9,5.8C25.9,20.9,25.6,19.6,25.5,18.4z"/>
	<path fill-rule="evenodd" clip-rule="evenodd" fill="#FCCF00" d="M12,22.9c0.9,0.5,1.7,1.1,2.5,1.8c0.4,0.3,0.9,0.9,1.3,1.5
		c-2.4,0.5-4.4,0.4-5.4-0.4c-0.9-0.7-2-2.3-3-4.3C9,21.3,10.5,22,12,22.9z"/>
</g>
<path opacity="0.1" fill-rule="evenodd" clip-rule="evenodd" fill="#FFF9EC" stroke="#FEFEFD" stroke-miterlimit="10" d="M31.3,16.8
	c0-0.1,0-0.1,0-0.2c0,0,0,0,0-0.1c0,0,0-0.1,0-0.1c0,0,0,0,0-0.1c0-0.1,0-0.1-0.1-0.2c0,0,0,0,0,0v0c0,0,0,0,0,0
	c-0.1-0.1-0.1-0.2-0.2-0.3c0,0,0-0.1,0-0.1c0-0.1-0.1-0.2-0.1-0.3c0,0,0,0,0,0c-0.1-0.1-0.1-0.2-0.2-0.3c0,0,0,0,0-0.1
	c0-0.1-0.1-0.1-0.1-0.2c0,0,0,0,0-0.1c-0.1-0.1-0.1-0.1-0.2-0.2c0,0,0,0,0-0.1c0-0.1-0.1-0.1-0.1-0.2c0,0,0,0-0.1-0.1
	c-0.1-0.1-0.1-0.1-0.2-0.2c0,0,0,0,0,0c0,0-0.1-0.1-0.1-0.1c0,0,0,0-0.1,0c-0.1,0-0.1-0.1-0.2-0.1c0,0,0,0,0,0
	c-0.1,0-0.1-0.1-0.2-0.1c0,0,0,0-0.1,0c-0.1,0-0.1,0-0.2-0.1c0,0,0,0,0,0c-0.1,0-0.1,0-0.2-0.1c0,0,0,0-0.1,0c-0.1,0-0.1,0-0.2,0
	c0,0,0,0-0.1,0c-0.1,0-0.1,0-0.2,0c0,0,0,0-0.1,0c0,0-0.1,0-0.1,0c0,0,0,0-0.1,0c-0.1,0-0.1,0-0.2,0c0,0,0,0-0.1,0c0,0-0.1,0-0.1,0
	c0,0-0.1,0-0.1,0c-0.1,0-0.1,0-0.2,0c0,0-0.1,0-0.1,0c0,0-0.1,0-0.1,0c0,0-0.1,0-0.1,0c-0.1,0-0.1,0-0.2,0c0,0-0.1,0-0.1,0
	c0,0-0.1,0-0.1,0c0,0-0.1,0-0.1,0c0,0-0.1,0-0.1,0c-0.9,0.3-1.8,0.7-2.6,1c-2.6,1-8.4,4-9.8,2.2C12.6,15.3,8.1,4.5,8.1,4.5L5.9,5.4
	c1.4,3.9,3.5,7.4,5.7,11c1.2,2,2.4,4.1,3.5,6.2c0.5,1.1,1.1,2.2,1.6,3.4c3.1-0.7,6.7-2.2,9.6-3.9c0,0,0,0,0,0c0,0,0.1-0.1,0.1-0.1
	c0,0,0.1,0,0.1,0c0.3-0.2,0.5-0.3,0.7-0.5c0,0,0,0,0.1,0c0.1-0.1,0.2-0.1,0.3-0.2c0,0,0.1,0,0.1-0.1c0.1-0.1,0.2-0.1,0.3-0.2
	c0,0,0,0,0,0c0.1-0.1,0.2-0.2,0.3-0.2c0,0,0,0,0,0c0.1-0.1,0.2-0.1,0.3-0.2c0,0,0,0,0.1-0.1c0.1-0.1,0.2-0.1,0.2-0.2c0,0,0,0,0,0
	c0.1-0.1,0.2-0.2,0.3-0.2c0,0,0,0,0,0c0.1-0.1,0.2-0.1,0.2-0.2c0,0,0,0,0.1-0.1c0.1-0.1,0.1-0.1,0.2-0.2c0,0,0,0,0,0
	c0.2-0.2,0.3-0.3,0.4-0.5c0,0,0,0,0-0.1c0.1-0.1,0.1-0.1,0.2-0.2c0,0,0,0,0-0.1c0.1-0.1,0.1-0.1,0.2-0.2c0,0,0,0,0,0
	c0.1-0.1,0.1-0.2,0.2-0.2c0,0,0,0,0,0c0-0.1,0.1-0.1,0.1-0.2c0,0,0,0,0-0.1c0-0.1,0.1-0.1,0.1-0.2c0,0,0,0,0,0
	c0-0.1,0.1-0.1,0.1-0.2c0,0,0,0,0,0c0-0.1,0-0.1,0.1-0.2c0,0,0,0,0-0.1c0-0.1,0-0.1,0-0.2c0,0,0,0,0,0C31.3,17,31.3,16.9,31.3,16.8
	C31.3,16.8,31.3,16.8,31.3,16.8z"/>
</svg>
